<?xml version="1.0" encoding="utf-8"?>
<!-- Generator: Adobe Illustrator 17.0.0, SVG Export Plug-In . SVG Version: 6.00 Build 0)  -->
<!DOCTYPE svg PUBLIC "-//W3C//DTD SVG 1.1//EN" "http://www.w3.org/Graphics/SVG/1.1/DTD/svg11.dtd">
<svg version="1.1" xmlns="http://www.w3.org/2000/svg" xmlns:xlink="http://www.w3.org/1999/xlink" x="0px" y="0px" width="1000px"
	 height="1000px" viewBox="0 0 1000 1000" enable-background="new 0 0 1000 1000" xml:space="preserve">
<g id="Layer_1">
	<g>
		<path fill="#1EA1F2" d="M852.768,197.631c-0.105-0.186-0.058-0.281,0.14-0.271c0.009,0,0.026,0.1,0.019,0.151
			c-0.039,0.318,0.04-0.122-0.206,0.082C852.722,197.593,852.768,197.631,852.768,197.631z"/>
	</g>
</g>
<g id="Layer_4">
	<path fill="#FFFEFE" d="M683.735,316.375c-6.025,5.958-13.058,13.016-19.068,18.99c-1.194,1.187-1.18,1.256-0.009,2.448
		c4.371,4.45,8.772,8.87,13.14,13.324c1.83,1.866,2.031,1.269,0.427,3.949c-9.073,15.158-18.174,30.299-27.259,45.449
		c-7.236,12.066-14.459,24.139-21.701,36.201c-0.572,0.953-1.059,1.974-1.878,2.763c-1.117-4.078-2.258-8.15-3.349-12.235
		c-6.035-22.605-12.063-45.213-18.083-67.822c-3.492-13.118-6.963-26.242-10.447-39.362c-0.2-0.754-1.752-5.022-1.508-5.839
		L683.735,316.375z"/>
</g>
<g id="Layer_5">
	<path fill="#CA0B0B" d="M636.855,473.153c-1.384-4.887-2.817-9.761-4.139-14.665c-1.841-6.832-3.598-13.686-5.391-20.53
		c0.819-0.789,1.305-1.81,1.878-2.763c7.243-12.062,14.466-24.135,21.701-36.201c9.085-15.15,18.187-30.291,27.259-45.449
		c1.604-2.68,1.402-2.083-0.427-3.949c-4.368-4.453-8.769-8.874-13.14-13.324c-1.171-1.192-1.185-1.261,0.009-2.448
		c6.01-5.974,12.044-11.924,18.069-17.883c0.354-0.168,0.707-0.336,1.061-0.503c-0.512,2.277-0.232,4.601-0.416,6.892
		c-0.246,3.07-0.317,6.155-0.81,9.209c-0.302,1.869-0.264,3.779-0.468,5.674c-0.49,4.554-1.245,9.061-1.842,13.593
		c-0.526,3.993-1.165,7.967-1.851,11.924c-1.55,8.941-3.714,17.755-6.044,26.526c-2.685,10.109-5.889,20.055-9.537,29.852
		c-3.019,8.108-6.346,16.093-9.942,23.97c-2.717,5.952-5.728,11.753-8.67,17.588c-2.042,4.05-4.375,7.954-6.573,11.926
		C637.417,472.891,637.181,473.074,636.855,473.153z"/>
</g>
<g id="Layer_2">
	<path fill="#757575" d="M595.791,317.29c3.484,13.12,6.954,26.244,10.447,39.362c6.019,22.61,12.048,45.217,18.083,67.822
		c1.091,4.085,2.231,8.157,3.349,12.234c1.793,6.844,3.55,13.698,5.391,20.53c1.321,4.904,2.755,9.778,4.139,14.665
		c-0.273,1.544-1.263,2.73-2.042,4.012c-6.661,10.954-13.827,21.56-21.723,31.67c-4.014,5.139-8.122,10.191-12.414,15.102
		c-3.306,3.783-6.7,7.472-10.178,11.097c-1.764,1.838-3.366,3.84-5.23,5.59c-4.478,4.203-8.893,8.478-13.486,12.552
		c-4.338,3.847-8.775,7.598-13.341,11.17c-6.885,5.386-14.004,10.457-21.286,15.307c-5.364,3.573-10.836,6.971-16.432,10.142
		c-7.563,4.285-15.244,8.355-23.182,11.947c-6.746,3.052-13.538,5.971-20.444,8.627c-13.134,5.05-26.602,9.017-40.281,12.279
		c-5.939,1.416-11.95,2.465-17.952,3.58c-4.197,0.78-8.417,1.439-12.626,2.093c-3.11,0.483-6.299,0.743-9.429,1.148
		c-3.771,0.488-7.569,0.654-11.338,1.192c-3.375,0.482-6.852,0.196-10.272,0.424c-8.852,0.591-17.714,0.527-26.572,0.425
		c-4.45-0.051-8.894-0.623-13.343-0.671c-2.798-0.031-5.553-0.391-8.32-0.611c-3.384-0.269-6.775-0.565-10.134-1.169
		c-2.721-0.489-5.502-0.633-8.233-1.073c-6.401-1.032-12.793-2.111-19.14-3.463c-5.27-1.122-10.54-2.237-15.724-3.698
		c-8.934-2.518-17.876-4.995-26.58-8.286c-4.535-1.715-9.13-3.291-13.592-5.183c-4.468-1.895-8.976-3.704-13.355-5.817
		c-4.594-2.217-9.242-4.323-13.742-6.729c-7.863-4.203-15.66-8.524-23.158-13.36c-0.638-0.411-1.23-0.894-1.804-1.591
		c30.013,2.915,59.592,1.114,88.671-6.987c29.138-8.118,55.626-21.469,80.036-40.275c-32.259-1.47-59.257-13.524-81.092-36.518
		c-11.798-12.424-20.342-26.942-25.538-43.776c17.23,3.462,34.013,2.831,50.952-1.651c-26.902-5.952-48.934-19.461-65.985-40.708
		c-17.094-21.3-25.099-45.866-25.161-73.604c5.556,2.798,10.759,5.46,16.283,7.408c5.463,1.926,10.981,3.627,16.651,4.815
		c5.74,1.203,11.529,1.987,17.492,1.962c-24.061-17.648-40.046-40.615-46.711-69.795c-6.622-28.993-0.797-61.235,12.901-82.479
		c1.083,0.205,1.782,0.988,2.409,1.785c2.508,3.191,5.221,6.201,7.916,9.233c4.929,5.547,9.887,11.077,15.324,16.118
		c4.43,4.107,8.717,8.372,13.409,12.211c3.071,2.512,6.031,5.174,9.106,7.691c6.466,5.292,13.162,10.28,20.035,15.03
		c9.831,6.795,20.036,12.971,30.552,18.655c8.072,4.363,16.296,8.403,24.699,12.066c6.925,3.019,13.989,5.693,21.097,8.27
		c11.285,4.091,22.825,7.271,34.461,10.113c7.229,1.766,14.562,3.06,21.917,4.251c4.832,0.783,9.682,1.445,14.519,2.178
		c3.679,0.557,7.446,0.524,11.134,1.034c2.711,0.375,5.417,0.198,8.11,0.441c0.93,0.084,1.328-0.187,1.585-0.958
		c0.478,0.013,0.957,0.039,1.436,0.034c9.422-0.097,18.841-0.069,28.266-0.357c11.416-0.348,22.851-0.002,34.276-0.118
		c8.373-0.085,16.74,0.135,25.124-0.337c7.965-0.448,15.976-0.081,23.966-0.076c9.428,0.006,15.887,0.007,25.313,0.011
		L595.791,317.29z"/>
</g>
<g id="Layer_3">
	<path fill="#1EA1F2" d="M457.051,315.157c-2.332-11.341-3.73-19.227-2.746-30.775c1.604-18.824,7.312-36.325,17.643-52.155
		c16.819-25.77,40.185-42.528,70.123-49.902c9.742-2.399,19.679-3.436,29.721-3.098c19.792,0.666,38.292,5.863,55.368,15.978
		c8.718,5.164,16.622,11.361,23.663,18.641c1.114,1.152,2.141,1.549,3.777,1.205c19.816-4.175,38.769-10.805,56.858-19.892
		c3.854-1.936,7.596-4.095,11.394-6.143c0.549-0.296,1.009-0.817,1.723-0.735c-0.004,5.254-9.797,24.101-18.483,35.236
		c-8.333,10.683-18.368,19.518-30.133,26.842c1.072,0.571,1.918,0.317,2.691,0.209c19.64-2.75,38.679-7.717,56.985-15.413
		c1.35-0.568,2.648-1.468,4.247-1.268l-0.046-0.038c-1.148,2.568-2.964,4.701-4.595,6.944
		c-12.436,17.107-26.958,32.223-43.523,45.371c-2.191,1.739-4.389,3.475-6.68,5.077c-1.123,0.785-1.491,1.648-1.453,2.989
		c0.215,7.514,0.259,15.03,0.07,22.547L457.051,315.157z"/>
</g>
</svg>
